<?xml version="1.0" encoding="utf-8"?>
<!-- Generator: Adobe Illustrator 27.2.0, SVG Export Plug-In . SVG Version: 6.00 Build 0)  -->
<svg version="1.1" id="Layer_1" xmlns="http://www.w3.org/2000/svg" xmlns:xlink="http://www.w3.org/1999/xlink" x="0px" y="0px"
	 viewBox="0 0 177 53" style="enable-background:new 0 0 177 53;" xml:space="preserve">
<style type="text/css">
	.st0{fill:#FFFFFF;}
	.st1{fill:none;}
</style>
<polygon class="st0" points="49.1,0 15.7,33.6 0,25.2 15.7,48.6 "/>
<path class="st0" d="M45.4,33.3c-0.1,0.5-0.1,0.9-0.1,1.4c0,3.2,1.7,5.6,5.2,5.6c2.7,0,5.1-1.8,5.8-4.4h2.2c-1.2,4-3.9,6.3-8.1,6.3
	c-4.7,0-7.2-3-7.2-7.6c0-5.6,3.5-11.3,9.6-11.3c4.3,0,6.7,2.8,6.7,7c0,1,0,2.1-0.2,3.1L45.4,33.3z M57.3,31.4c0-0.5,0-0.9,0-1.4
	c0.2-2.5-1.7-4.8-4.2-5c-0.2,0-0.4,0-0.6,0c-3.6,0-6,3-6.8,6.4L57.3,31.4z"/>
<path class="st0" d="M79.7,25.5c0-3.4-2-5.2-5.4-5.2c-5.7,0-8.5,5.8-8.5,11.2c0,4.5,2.4,7.2,6.6,7.2s5.8-3.9,6.2-5.5h4.2
	c-1.4,6.1-5.6,9-10.6,9c-6.9,0-10.6-4.6-10.6-10.5c0-10.2,6.6-14.8,12.9-14.8c5.7,0,9.7,3.1,9.5,8.6H79.7z"/>
<path class="st0" d="M97,16.9c6.3,0,10.5,4.4,10.5,10.6c0,10.2-6.3,14.8-12.7,14.8c-6.9,0-10.7-4.6-10.7-10.5
	C84.2,21.5,90.8,16.9,97,16.9z M95,38.7c5.6,0,8.4-5.8,8.4-11.2c0-4.5-2.2-7.2-6.4-7.2c-5.7,0-8.5,5.8-8.5,11.2
	C88.4,36,90.8,38.7,95,38.7z"/>
<path class="st0" d="M127.8,41.6h-2.7v-2.5H125c-1.6,1.9-3.9,3.1-6.4,3.1c-6.9,0-10.7-4.6-10.7-10.5c0-10.2,6.6-14.8,12.9-14.8
	c5.7,0,10,2.6,10,8.3h-4.2c-0.2-3.3-2.4-4.8-5.9-4.8c-5.7,0-8.5,5.8-8.5,11.2c0,4.5,2.4,7.2,6.6,7.2s6.4-2.8,7.3-6.6h-6.6l0.7-3.2
	h10.3L127.8,41.6z"/>
<path class="st0" d="M135.8,17.5h10.4c2.1,0,7.6,0.3,7.6,6.2c0,3.8-2,6-5.4,6.6v0.1c2,0.7,2.6,2.4,2.6,4.4c0,1.7-0.4,3.3-0.4,5
	c0,0.7,0.1,1.4,0.4,2h-4.4c-0.2-0.6-0.3-1.2-0.3-1.9c0-1.8,0.4-3.5,0.4-5.3c0-2.8-2.2-2.8-4.5-2.8h-5l-2.1,10h-4.3L135.8,17.5z
	 M137.8,28.5h6.1c3.6,0,5.6-1.6,5.6-4.4c0-2.6-2.1-3.1-4.3-3.1h-5.9L137.8,28.5z"/>
<path class="st0" d="M165.2,17.5h4.5l4.2,24.2h-4.3l-1-6.4H159l-3.7,6.4h-4.5L165.2,17.5z M166.6,21.7L166.6,21.7L160.8,32h7.3
	L166.6,21.7z"/>
<rect x="5.3" class="st1" width="50.3" height="47.5"/>
</svg>
