<svg xmlns="http://www.w3.org/2000/svg" viewbox="0 0 42 42" fill="#9a9a9a"><path fill-rule="evenodd" clip-rule="evenodd" d="M21 37.5c9.113 0 16.5-7.387 16.5-16.5S30.113 4.5 21 4.5 4.5 11.887 4.5 21 11.887 37.5 21 37.5zm0 2.25c10.355 0 18.75-8.395 18.75-18.75S31.355 2.25 21 2.25 2.25 10.645 2.25 21 10.645 39.75 21 39.75z" fill="#9a9a9a"/><path d="M15.011 26.065h-2.01v-7.75l-2.401.744v-1.635l4.196-1.503h.215v10.144zM23.63 18.627c0 .492-.123.928-.369 1.308-.245.38-.584.685-1.015.912.491.236.88.563 1.168.981.288.413.432.9.432 1.461 0 .9-.306 1.612-.919 2.136-.612.52-1.445.78-2.498.78-1.052 0-1.887-.262-2.504-.787-.617-.524-.926-1.234-.926-2.129 0-.561.144-1.05.431-1.468a2.886 2.886 0 011.163-.974 2.653 2.653 0 01-1.016-.912 2.39 2.39 0 01-.362-1.308c0-.862.287-1.549.863-2.06.575-.514 1.357-.772 2.345-.772.983 0 1.762.255 2.337.766.58.505.87 1.194.87 2.066zm-1.802 4.516c0-.44-.128-.793-.383-1.058-.255-.264-.598-.396-1.03-.396-.426 0-.767.132-1.022.396-.255.26-.383.613-.383 1.058 0 .431.125.78.376 1.044.25.264.598.396 1.043.396.437 0 .777-.127 1.023-.382.25-.255.376-.608.376-1.058zm-.209-4.418c0-.395-.104-.71-.313-.947-.209-.24-.503-.361-.884-.361-.375 0-.668.116-.876.348-.209.232-.313.552-.313.96 0 .403.104.728.313.974.209.246.503.369.883.369s.673-.123.877-.37c.209-.245.313-.57.313-.973zM29.35 20.395h2.511v1.816H29.35v2.839h-1.914v-2.84h-2.519v-1.815h2.52v-2.72h1.913v2.72z" fill="#9a9a9a"/></svg>