<?xml version="1.0" encoding="utf-8"?>
<!-- Generator: Adobe Illustrator 27.2.0, SVG Export Plug-In . SVG Version: 6.00 Build 0)  -->
<svg version="1.1" id="Layer_1" xmlns="http://www.w3.org/2000/svg" xmlns:xlink="http://www.w3.org/1999/xlink" x="0px" y="0px"
	 viewBox="0 0 12.8 9" style="enable-background:new 0 0 12.8 9;" xml:space="preserve">
<style type="text/css">
	.st0{fill:#FFFFFF;}
</style>
<g transform="translate(4.1178618,-144.33367)">
	<g transform="matrix(0.26458333,0,0,0.26458333,-24.779174,139.83925)">
		<path d="M100.9,51V36.6H92v5.1h3.8v4.1H85.2c0.4-1.1,0.7-2.1,1-3.2c2.2-6.6,4.4-13.2,6.6-19.8c0.1-0.3,0.4-0.7,0.7-0.8
			c0.8-0.1,1.6-0.1,2.3,0v7.8h5V17H89.3c-3.7,11.4-7.5,22.6-11.2,34H100.9z M126.4,51c-0.1-0.3-0.1-0.5-0.2-0.6
			c-4-10.9-8-21.8-12.1-32.7c-0.1-0.5-0.6-0.8-1.1-0.7c-3.4,0-6.8,0-10.1,0c-0.2,0-0.5,0-0.7,0.1v33.9h5.1V36.5c2.4,0,4.7,0.1,6.9,0
			c0.9-0.2,1.8,0.4,2,1.3c0,0,0,0.1,0,0.1c1.5,4.2,3,8.3,4.6,12.4c0.1,0.3,0.5,0.7,0.8,0.8C123.1,51,124.7,51,126.4,51z"/>
		<path class="st0" d="M100.9,51H78.1c3.7-11.4,7.5-22.6,11.2-34h11.6v12.9h-5v-7.8c-0.8-0.1-1.6-0.1-2.3,0c-0.3,0-0.6,0.5-0.7,0.8
			c-2.2,6.6-4.4,13.2-6.6,19.8c-0.3,1-0.7,2.1-1,3.2h10.5v-4.1H92v-5.1h8.9L100.9,51z"/>
		<path class="st0" d="M126.4,51c-1.7,0-3.3,0-4.9,0c-0.3,0-0.7-0.4-0.8-0.8c-1.6-4.1-3.1-8.2-4.6-12.4c-0.2-0.9-1-1.5-1.9-1.4
			c0,0-0.1,0-0.1,0c-2.3,0.1-4.6,0-6.9,0v14.4h-5.1V17.1c0.2,0,0.5-0.1,0.7-0.1c3.4,0,6.8,0,10.1,0c0.5-0.1,1,0.2,1.1,0.7
			c4,10.9,8,21.8,12.1,32.7C126.2,50.5,126.3,50.7,126.4,51z M113.7,31.3c-1.1-3-2.2-5.9-3.3-8.8c-0.1-0.2-0.3-0.4-0.6-0.4
			c-0.8,0-1.7,0-2.6,0v9.2L113.7,31.3z"/>
	</g>
</g>
</svg>
