<?xml version="1.0" encoding="utf-8"?>
<!-- Generator: Adobe Illustrator 27.2.0, SVG Export Plug-In . SVG Version: 6.00 Build 0)  -->
<svg version="1.1" id="Layer_1" xmlns="http://www.w3.org/2000/svg" xmlns:xlink="http://www.w3.org/1999/xlink" x="0px" y="0px"
	 viewBox="0 0 885.4 125.9" style="enable-background:new 0 0 885.4 125.9;" xml:space="preserve">
<style type="text/css">
	.st0{fill:#FFFFFF;}
</style>
<path class="st0" d="M18,24h29.4c13.1,0,17.8,0.4,21.7,1.9c7.3,3.5,11.6,10.4,11.6,18.6c0,7.7-2.3,11.6-10.1,15.5
	c8.1,2.7,13.5,10.4,12.8,18.9c0,12.8-10.1,21.3-24.7,21.3H18V87.8h5.8V36.4H18V24L18,24z M39.7,36.4V55h15.1
	c5.4,0.4,10.4-3.5,10.8-8.9c0-0.4,0-0.8,0-0.8c0-5-5-8.9-12-8.9H39.7L39.7,36.4z M39.7,66.9v20.9h16.2c6.2,0.4,11.6-3.9,12-10.1
	c0,0,0,0,0-0.4c0-6.6-5.4-10.8-13.5-10.8L39.7,66.9L39.7,66.9z"/>
<path class="st0" d="M147.6,81.2c-2.7,12.8-13.1,20.5-27.1,20.5c-16.2,0-28.2-12.8-28.2-30.5s12-30.5,28.2-30.5
	c8.9,0,17.4,4.3,22.4,12c3.9,6.6,6.2,13.9,5.8,21.7H107c1.5,15.1,11.2,15.9,13.9,15.9c5.4,0.4,10.4-3.5,12-8.5L147.6,81.2
	L147.6,81.2z M132.9,64.2c0-6.6-5.4-11.6-11.6-11.6h-0.4c-6.6,0-12,5-13.1,11.2L132.9,64.2L132.9,64.2z"/>
<path class="st0" d="M195.9,62.3h26.7v37.9h-8.5v-12c-1.5,2.7-3.5,5-5.8,7.3c-5,4.3-11.2,6.6-17.4,6.6c-17.8,0-31.7-17.4-31.7-39.8
	s13.9-40.2,31.3-40.2c9.7-0.4,18.2,5,22.8,13.1v-12h8.1v24.4h-8.5c-0.8-3.5-2.3-6.6-4.3-9.3c-3.9-5-10.1-8.1-16.2-8.5
	c-9.3,0-23.2,8.1-23.2,31.7c0,18.6,10.1,32.1,23.2,32.1c10.4-0.4,18.9-8.1,20.9-18.2c0.4-1.9,0.4-4.3,0.4-6.2h-18.2L195.9,62.3
	L195.9,62.3z"/>
<path class="st0" d="M287.6,100.6H271V90.1c-3.9,7.3-11.6,11.6-19.7,11.6c-9.7,0.8-18.2-7-18.9-16.6c0-0.4,0-0.8,0-1.2
	c0-11.2,9.7-16.6,32.9-18.9l5.4-0.4v-5.8c0-6.6-5-10.8-13.1-10.8s-12.4,2.7-13.9,10.4h-8.9c0.8-4.6,3.1-8.9,6.6-12
	c4.3-3.5,10.1-5,15.5-5c12,0,22,5.4,22,20.1v32.1h8.1L287.6,100.6L287.6,100.6z M270.9,70.4l-5.4,0.8c-17.8,2.3-23.6,5.4-23.6,12.8
	c0.4,6.6,5.8,11.2,12,11.2c8.5-0.4,15.9-6.6,17-15.1V70.4L270.9,70.4z"/>
<path class="st0" d="M311.9,53c2.7-3.9,7.7-12,18.6-12c7.7,0,12,3.9,13.5,12c1.5-2.7,3.1-5,5.4-7.3c3.5-3.1,7.7-5,12.4-5
	c8.9,0,13.9,5.8,13.9,15.9v36.7h8.1v7h-16.2V59.6c0-8.1-2.7-12-8.5-12c-10.1,0-15.5,12-15.5,16.2v29.4h8.5v7h-17V58.4
	c0-7.3-2.7-10.4-8.5-10.4c-8.9,0-15.5,11.2-15.5,16.6v29h8.5v7h-25.1v-7h8.5V48.7h-8.5v-7h17L311.9,53L311.9,53z"/>
<path class="st0" d="M392.7,20.5H409v33.6c2.3-4.3,8.9-12.8,18.9-12.8c13.1,0,23.2,13.5,23.2,30.5c0,15.9-10.8,29.4-23.2,29.4
	c-10.4,0-15.5-7-18.9-11.6v10.8h-16.6v-7h8.1V27.5h-7.7L392.7,20.5L392.7,20.5z M409,75.8c0,9.7,7.3,17.4,16.6,18.2
	c10.1,0,16.2-8.9,16.2-23.2S435.3,48,425.6,48c-8.5,0-17,9.3-17,17.8L409,75.8L409,75.8z"/>
<path class="st0" d="M456.1,20.5h16.6v73.1h7.7v7h-24.7v-7h8.5V27.1h-8.1V20.5L456.1,20.5z"/>
<path class="st0" d="M537.3,84.3c-0.8,3.5-2.3,6.2-4.6,8.9c-4.6,5.4-11.2,8.5-18.6,8.5c-15.9,0-27.1-12.4-27.1-30.2
	c0-17,11.2-30.2,25.5-30.2c14.3,0,25.9,11.2,25.9,31.7h-42.1c0.8,8.5,2.7,13.5,6.6,17.4c3.1,2.7,7,4.3,10.8,4.3
	c6.6,0,10.8-3.1,13.9-10.1L537.3,84.3L537.3,84.3z M528.8,66.5c0-5.4-1.9-10.4-5.8-14.7c-2.7-2.3-6.2-3.9-9.7-3.5
	c-7.3,0.4-13.5,5.4-15.5,12.4c-0.4,1.9-1.2,3.9-1.2,5.8H528.8L528.8,66.5z"/>
<path class="st0" d="M574,24h18.6l21.3,64.2h5.8v12.4h-17.4l-5-16.6h-27.1l-5,16.6h-17.8V88.2h5.8L574,24z M583.3,38.3l-10.1,34
	h20.1L583.3,38.3z"/>
<path class="st0" d="M618.9,42.2h23.2v11.2h-5.8l8.1,34.4l9.7-45.6h15.1l9.7,44.9l7.7-33.6h-5.8V42.2H704v11.2h-5l-12.4,46.8h-15.5
	L661.4,60l-9.3,40.2h-15.5l-12.8-46.8h-5L618.9,42.2L618.9,42.2z"/>
<path class="st0" d="M758.8,89.3h5v11.2h-18.2v-7c-4.3,5.4-10.8,8.1-17.8,8.1c-11.6,0-20.5-7.7-20.5-18.2c0-17,19.3-18.9,37.9-20.5
	c0-8.9-3.1-11.6-10.4-11.6c-7.3,0-10.1,3.5-10.4,8.9v0.4l-13.9-0.4c0.8-11.6,10.1-18.9,24-18.9c16.2,0,24.7,7.3,24.7,20.5
	L758.8,89.3L758.8,89.3z M744.9,73.1c-13.5,1.2-22.4,2.3-22.4,10.4c0,4.6,3.9,7.7,9.7,7.7c7,0,12.8-5.4,13.1-12.4v-0.4V73h-0.4V73.1
	z"/>
<path class="st0" d="M791.3,51.4c3.9-7.3,8.1-10.4,14.7-10.4c2.3,0,4.3,0.4,6.6,0.8v13.5c-2.3-0.4-4.6-0.8-7-0.8
	c-7.3-0.4-13.5,5-13.9,12V89h7v11.2h-27.1V89h5.8V53.4h-5.8V42.2h19.7V51.4z"/>
<path class="st0" d="M870.9,81.2c-2.7,12.8-13.1,20.5-27.1,20.5c-16.2,0-28.2-12.8-28.2-30.5s12-30.5,28.2-30.5
	c8.9,0,17.4,4.3,22.4,12c3.9,6.6,6.2,13.9,5.8,21.7h-41.8c1.5,15.1,11.2,15.9,13.9,15.9c5.4,0.4,10.4-3.5,12-8.5L870.9,81.2
	L870.9,81.2z M855.9,64.2c0-6.6-5.4-11.6-11.6-11.6h-0.4c-6.6,0-12,5-13.1,11.2L855.9,64.2L855.9,64.2z"/>
</svg>
