<?xml version="1.0" encoding="utf-8"?>
<!-- Generator: Adobe Illustrator 27.2.0, SVG Export Plug-In . SVG Version: 6.00 Build 0)  -->
<svg version="1.1" id="Layer_1" xmlns="http://www.w3.org/2000/svg" xmlns:xlink="http://www.w3.org/1999/xlink" x="0px" y="0px"
	 viewBox="0 0 125 36" style="enable-background:new 0 0 125 36;" xml:space="preserve">
<style type="text/css">
	.st0{fill:#FFFFFF;}
</style>
<g id="Page-1">
	<g id="Dekstop-Footer" transform="translate(-1474.000000, -2724.000000)">
		<g id="logo-gamcare" transform="translate(1474.000000, 2724.000000)">
			<path id="Shape" class="st0" d="M47.2,13.8c0.1,0.3,0,0.5-0.3,0.6L44.6,15c-0.3,0.1-0.4,0-0.5-0.3c-0.4-1.2-1.2-1.9-2.6-1.9
				c-2.2,0-3,1.3-3,3.1V20c0,1.8,0.7,3.1,3,3.1c1.8,0,2.8-0.9,2.8-2.7v-0.5h-2.5c-0.2,0-0.3-0.1-0.3-0.4v-2.3c0-0.1,0-0.2,0.1-0.3
				s0.2-0.1,0.2-0.1h5.4c0.2,0,0.4,0.1,0.4,0.3v3.4c0,3.2-2.4,5.6-6.1,5.6c-4.4,0-6.4-2.6-6.4-6.1v-4.3c0-3.5,2-6.1,6.4-6.1
				C45,9.7,46.6,11.7,47.2,13.8L47.2,13.8z M59.3,17.8v7.9c0,0.1,0,0.2-0.1,0.2S59.1,26,59,26h-2.4c-0.1,0-0.2,0-0.3-0.1
				c-0.1-0.1-0.1-0.2-0.1-0.2v-1.3c-0.7,1.2-2,1.9-3.3,1.9c-2.3,0-3.8-1.5-3.8-3.7c0-2.2,1.4-3.5,4.8-3.7c0.7-0.1,1.5-0.1,2.2,0
				v-0.9c0-1.2-0.6-1.6-1.7-1.6c-1.1,0-1.4,0.4-1.7,1.1c-0.1,0.3-0.2,0.3-0.4,0.2L49.9,17c-0.2-0.1-0.3-0.2-0.2-0.4
				c0.3-1.7,2-3,4.9-3C57.6,13.6,59.3,15.1,59.3,17.8L59.3,17.8z M56.1,21.9v-1.1c-0.6,0-1.3,0-1.9,0.1c-1.2,0.2-1.9,0.5-1.9,1.5
				c0,0.9,0.6,1.3,1.5,1.3C54.8,23.6,55.7,23,56.1,21.9L56.1,21.9z M68,13.6c1.5,0,2.6,0.9,3,2.2c0.9-1.3,2-2.2,3.5-2.2
				c2.1,0,3.3,1.7,3.3,4.2v7.9c0,0.2-0.2,0.3-0.4,0.3H75c-0.2,0-0.4-0.1-0.4-0.3v-7.3c0-1.1-0.5-1.8-1.3-1.8c-0.9,0-1.6,0.7-1.9,1.9
				v7.2c0,0.1,0,0.2-0.1,0.2C71.2,26,71.2,26,71.1,26h-2.7c-0.2,0-0.3-0.1-0.3-0.3v-7.3c0-1.1-0.5-1.8-1.3-1.8
				c-0.9,0-1.6,0.8-1.9,1.9v7.1c0,0.1,0,0.2-0.1,0.2S64.6,26,64.5,26h-2.7c-0.1,0-0.2,0-0.2-0.1c-0.1-0.1-0.1-0.2-0.1-0.2V14.2
				c0-0.1,0-0.2,0.1-0.2c0.1-0.1,0.1-0.1,0.2-0.1h2.6c0.1,0,0.2,0,0.2,0.1c0.1,0.1,0.1,0.1,0.1,0.2v1.4C65.4,14.6,66.5,13.6,68,13.6
				L68,13.6z M91.8,13.9c0.1,0.3,0,0.5-0.3,0.6l-2.3,0.7c-0.3,0.1-0.4,0-0.5-0.3c-0.3-1.1-0.9-2-2.5-2c-2,0-2.6,1.3-2.6,3.1V20
				c0,1.8,0.7,3.1,2.6,3.1c1.7,0,2.4-1,2.6-2.2c0.1-0.3,0.2-0.4,0.5-0.3l2.3,0.7c0.3,0.1,0.4,0.3,0.3,0.6c-0.5,2.4-2.3,4.3-5.8,4.3
				c-4,0-6-2.6-6-6.1v-4.3c0-3.5,2.1-6.1,6-6.1C89.5,9.7,91.2,11.6,91.8,13.9L91.8,13.9z M103.5,17.8v7.9c0,0.1,0,0.2-0.1,0.2
				c-0.1,0.1-0.1,0.1-0.2,0.1h-2.4c-0.1,0-0.2,0-0.3-0.1c-0.1-0.1-0.1-0.2-0.1-0.2v-1.3c-0.7,1.2-2,1.9-3.3,1.9
				c-2.3,0-3.8-1.5-3.8-3.7c0-2.2,1.4-3.5,4.8-3.7c0.7-0.1,1.5-0.1,2.2,0v-0.9c0-1.2-0.6-1.6-1.7-1.6c-1.1,0-1.4,0.4-1.7,1.1
				c-0.1,0.3-0.2,0.3-0.4,0.2L94.1,17c-0.2-0.1-0.3-0.2-0.2-0.4c0.3-1.7,2-3,4.9-3C101.8,13.6,103.5,15.1,103.5,17.8L103.5,17.8z
				 M100.3,21.9v-1.1c-0.6,0-1.3,0-1.9,0.1c-1.2,0.2-1.9,0.5-1.9,1.5c0,0.9,0.6,1.3,1.5,1.3C99,23.6,99.9,23,100.3,21.9L100.3,21.9z
				 M112.9,14.1v2.3c0,0.3-0.1,0.4-0.4,0.4h-0.4c-1.8,0-2.8,0.8-3.1,2.1v6.7c0,0.1,0,0.2-0.1,0.2c-0.1,0.1-0.1,0.1-0.2,0.1H106
				c-0.1,0-0.2,0-0.2-0.1c-0.1-0.1-0.1-0.1-0.1-0.2V14.2c0-0.1,0-0.2,0.1-0.2c0.1-0.1,0.2-0.1,0.2-0.1h2.5c0.3,0,0.3,0.2,0.3,0.3
				v1.6c0.6-1.1,1.7-2.1,3.5-2.1C112.8,13.7,112.9,13.8,112.9,14.1L112.9,14.1z M117.3,21v0.5c0,1.3,0.7,2.2,2.2,2.2
				c1.5,0,1.9-0.6,2.3-1.3c0.2-0.3,0.3-0.4,0.6-0.2l1.7,0.9c0.4,0.2,0.4,0.4,0.2,0.7c-0.7,1.7-2.6,2.6-5,2.6c-3.5,0-5.4-2.1-5.4-4.9
				v-2.8c0-2.8,1.7-4.9,5.3-4.9c3.4,0,5.1,2.2,5.1,4.9v1.9c0,0.3-0.1,0.5-0.6,0.5L117.3,21z M117.3,18.4v0.4h4.2v-0.4
				c0-1.2-0.7-2.1-2.1-2.1S117.3,17.2,117.3,18.4L117.3,18.4z"/>
			<path id="Shape_00000021812198947761652210000017236646775241881273_" class="st0" d="M15.3,0H0.4C0.2,0,0,0.2,0,0.4V22
				c0,3.7,1.5,7.2,4.1,9.9s6.2,4.1,9.8,4.1h1.4c7.7,0,13.9-6.2,13.9-14V14c0-3.7-1.5-7.2-4.1-9.9S19,0,15.3,0z M24.7,22.3
				c0,5.3-3.9,9.2-9.8,9.2c-7.1,0-10.4-4.2-10.4-10v-7c0-5.8,3.3-10,10.4-10c5.7,0,8.3,3.3,9.4,6.6c0.1,0.5,0,0.8-0.4,0.9L20,13.1
				c-0.5,0.1-0.7,0-0.9-0.5c-0.6-2-1.9-3-4.2-3c-3.6,0-4.8,2.1-4.8,5v6.6c0,2.9,1.2,5,4.8,5c3,0,4.6-1.4,4.6-4.4v-0.9h-4
				c-0.3,0-0.5-0.2-0.5-0.6v-3.7c0-0.4,0.2-0.6,0.5-0.6h8.7c0.4,0,0.6,0.2,0.6,0.5V22.3z"/>
		</g>
	</g>
</g>
</svg>
