<svg xmlns="http://www.w3.org/2000/svg" viewBox="0 0 37.657877 23.361926">
  <g transform="translate(16.56108,-137.15235)">
    <g transform="matrix(0.26458333,0,0,0.26458333,-16.628814,137.12142)">
      <path style="fill:#4e4e4e" d="M 54.628,44.28 C 54.61,30.73 60.801,17.927 71.415,9.56 53.383,-4.67 27.49,-2.603 11.926,14.312 c -15.56,16.914 -15.56,42.992 0,59.907 15.563,16.914 41.46,18.982 59.49,4.753 C 60.808,70.61 54.618,57.817 54.628,44.278 Z" />
      <path style="fill:#9a9a9a" d="m 142.585,44.28 c -0.01,16.894 -9.624,32.303 -24.762,39.685 A 43.84,43.84 0 0 1 71.441,78.973 C 82.047,70.603 88.238,57.809 88.238,44.266 88.238,30.723 82.047,17.929 71.441,9.559 a 43.84,43.84 0 0 1 46.382,-4.992 c 15.138,7.383 24.752,22.79 24.762,39.686 v 0.026 z" />
      <path style="fill:#7d7d7d" d="M 71.415,78.869 C 60.855,70.47 54.697,57.687 54.697,44.162 c 0,-13.525 6.158,-26.308 16.718,-34.707 10.606,8.37 16.798,21.164 16.798,34.707 0,13.543 -6.193,26.337 -16.798,34.707 z" />
      <path style="fill:#9a9a9a" d="m 138.382,71.498 v -1.433 h 0.57 V 69.779 H 137.5 v 0.286 h 0.623 v 1.433 h 0.26 z m 2.828,0 v -1.72 h -0.441 l -0.52,1.225 -0.518,-1.224 h -0.39 v 1.719 h 0.312 v -1.172 l 0.467,1.12 h 0.337 l 0.467,-1.12 v 1.302 z" />
    </g>
  </g>
</svg>
