<?xml version="1.0" encoding="utf-8"?>
<!-- Generator: Adobe Illustrator 27.2.0, SVG Export Plug-In . SVG Version: 6.00 Build 0)  -->
<svg version="1.1" id="Layer_1" xmlns="http://www.w3.org/2000/svg" xmlns:xlink="http://www.w3.org/1999/xlink" x="0px" y="0px"
	 viewBox="0 0 38.4 7.4" style="enable-background:new 0 0 38.4 7.4;" xml:space="preserve">
<style type="text/css">
	.st0{fill:#FFFFFF;}
	.st1{fill:#AB000D;}
</style>
<g transform="translate(-770.82997,-343.65857)">
	<g transform="matrix(0.26458333,0,0,0.26458333,762.97185,338.38013)">
		<path id="path3166" class="st0" d="M117.5,26h-0.9l-2.6,6.4h1.1l0.7-1.8h2.3l0.7,1.8h1.2L117.5,26z M116.1,29.8l0.9-2.2l0.9,2.2
			H116.1z"/>
		<g id="g3172">
			<path id="path3168" class="st0" d="M47.1,25.2c0.3-0.1,0.6-0.1,0.8-0.1c0.3,0,0.6,0,0.9,0c0.3,0,0.6,0,0.9,0
				c0.3,0,0.5,0.1,0.8,0.1c0.1,0.1,0.1,0.3,0.2,0.4c0,0.2,0.1,0.4,0.1,0.6c0,0.2,0.1,0.4,0.1,0.6s0.1,0.4,0.1,0.5
				c0.2-0.3,0.4-0.6,0.6-0.9c0.3-0.3,0.6-0.6,0.9-0.8c0.4-0.3,0.8-0.4,1.2-0.6c0.5-0.2,1-0.2,1.5-0.2c2.4,0,4,0.9,4.6,2.8
				c0.4-0.8,1-1.4,1.7-1.9c0.8-0.6,1.8-0.9,2.8-0.8c1.4-0.1,2.9,0.4,3.9,1.5c0.9,1.3,1.4,2.9,1.2,4.5v9.8c-0.7,0.1-1.4,0.2-2.1,0.2
				c-0.7,0-1.4-0.1-2.1-0.2v-8.7c0-0.8-0.1-1.7-0.4-2.5c-0.3-0.6-1-0.9-1.6-0.9c-0.3,0-0.7,0.1-1,0.1c-0.3,0.1-0.7,0.3-0.9,0.6
				c-0.3,0.3-0.5,0.7-0.7,1.1c-0.2,0.6-0.3,1.3-0.3,1.9v8.3c-0.7,0.1-1.4,0.2-2.1,0.2c-0.7,0-1.4-0.1-2.1-0.2v-8.7
				c0-0.8-0.1-1.7-0.4-2.5c-0.3-0.6-1-1-1.6-0.9c-0.3,0-0.7,0.1-1,0.1c-0.3,0.1-0.7,0.3-0.9,0.6c-0.3,0.3-0.5,0.8-0.6,1.2
				c-0.2,0.7-0.3,1.3-0.2,2v8.1c-0.7,0.1-1.4,0.2-2.1,0.2c-0.7,0-1.4-0.1-2.1-0.2L47.1,25.2z"/>
			<path id="path3170" class="st0" d="M82,38.1c1.4-0.1,2.9,0.3,4,1.2c1.4,1.5,1.7,3.8,0.6,5.6c-0.5,0.7-1.1,1.3-1.8,1.8
				c-0.8,0.5-1.7,0.9-2.7,1.1c-1.1,0.3-2.2,0.4-3.4,0.4c-1,0-2-0.1-3-0.3c-0.7-0.1-1.4-0.4-2.1-0.8c-0.5-0.3-0.9-0.7-1.1-1.2
				c-0.2-0.5-0.4-1.1-0.3-1.6c0-0.8,0.2-1.6,0.7-2.2c0.5-0.6,1-1.1,1.7-1.5c-0.4-0.3-0.8-0.6-1.1-1c-0.3-0.5-0.4-1-0.4-1.6
				c0-0.7,0.1-1.3,0.5-1.9c0.4-0.6,0.8-1,1.4-1.4c-0.7-0.5-1.2-1.1-1.6-1.8c-0.4-0.7-0.6-1.6-0.6-2.4c0-0.7,0.1-1.5,0.4-2.2
				c0.3-0.7,0.7-1.3,1.3-1.7c0.6-0.5,1.3-0.9,2.1-1.2c0.9-0.3,1.8-0.4,2.8-0.4c0.9,0,1.9,0.1,2.8,0.5c0.8,0.3,1.5,0.7,2.1,1.2
				c0.4-0.5,0.8-0.9,1.4-1.1c0.7-0.3,1.5-0.4,2.3-0.4c0,0.3,0.1,0.5,0.1,0.8c0,0.3,0,0.5,0,0.8c0,0.3,0,0.7,0,1c0,0.3-0.1,0.7-0.1,1
				h-2.4c0.1,0.2,0.2,0.5,0.3,0.7c0.1,0.4,0.1,0.7,0.1,1.1c0,0.7-0.1,1.5-0.4,2.2c-0.3,0.7-0.7,1.3-1.3,1.7
				c-0.6,0.5-1.3,0.9-2.1,1.1c-0.9,0.3-1.8,0.4-2.7,0.4c-0.8,0-1.5-0.1-2.3-0.3c-0.3,0.2-0.5,0.4-0.6,0.7c-0.1,0.2-0.1,0.5-0.1,0.7
				c0,0.3,0.1,0.6,0.3,0.8c0.4,0.2,0.8,0.4,1.3,0.3L82,38.1z M78.2,41.2c-0.4,0-0.7,0-1.1,0.2c-0.3,0.1-0.5,0.3-0.7,0.5
				c-0.2,0.2-0.3,0.4-0.4,0.6c-0.1,0.2-0.1,0.4-0.1,0.7c-0.1,0.6,0.3,1.3,0.8,1.5c0.7,0.3,1.5,0.4,2.3,0.4c1,0,2.1-0.2,3-0.6
				c0.7-0.3,1.1-0.9,1.2-1.6c0-0.2,0-0.4-0.1-0.6c-0.1-0.2-0.2-0.4-0.3-0.5c-0.2-0.2-0.4-0.3-0.6-0.4c-0.3-0.1-0.7-0.2-1-0.2
				L78.2,41.2z M79.4,33c0.7,0.1,1.4-0.2,1.8-0.7c0.4-0.6,0.6-1.3,0.6-2c0-0.7-0.2-1.4-0.6-2c-0.4-0.5-1.1-0.8-1.8-0.7
				c-0.7-0.1-1.4,0.2-1.8,0.7c-0.4,0.6-0.6,1.3-0.6,2c0,0.7,0.2,1.4,0.6,2C78,32.8,78.7,33.1,79.4,33z"/>
		</g>
		<path id="path3174" class="st1" d="M38.9,46.9l0.4,0.3c0.9-0.7,1.8-1.4,2.7-2c1.2-0.8,1.9-2.1,1.8-3.6c0-2.2,0-4.4,0-6.5
			c0-0.3,0-0.6-0.1-0.9h-0.2L38.9,46.9z M43.6,32.9c0.2-0.2,0.2-0.3,0.2-0.3c0-2.4,0-4.8,0-7.2s-2.4-5-5-5.4L43.6,32.9z"/>
		<path id="path3176" class="st1" d="M29.7,28.6c3.1,1,6.3,2,9.4,3.1c1.5,0.5,2.9,1,4.7,1.6c-1.7,0.6-3.1,1.1-4.6,1.6L29.7,38v-0.7
			l3.7-4c-0.6-0.6-1.4-1.4-2.2-2.2c-0.5-0.6-1-1.2-1.6-1.8L29.7,28.6z"/>
		<path id="path3182" class="st0" d="M100.4,27.3c-1.4-2.6-5.5-2.7-7.9-2.3c-0.2,0-3.6,1.1-3.5,1.3l1.4,3.1c6.5-2.5,6.3,0.7,6.3,1.4
			c-3.5,0-8.5,0.5-8.7,5.2c-0.2,3.6,3.1,4.9,4.8,5.1c2,0.3,4.2-1.8,4.2-1.8l0.8,1.3h3.7v-8.9C101.5,28.8,100.8,28.1,100.4,27.3z
			 M96.6,37.1L96,37.2c-0.2,0-0.5,0.1-0.7,0.1c-0.2,0-0.4,0-0.7,0c-0.3,0-0.5-0.1-0.8-0.2c-0.2-0.1-0.5-0.3-0.6-0.5
			c-0.2-0.3-0.3-0.6-0.3-1c0-0.5,0.2-1.1,0.7-1.4c0.5-0.3,1.2-0.5,1.8-0.4c0.2,0,0.4,0,0.6,0l0.6,0.1L96.6,37.1z"/>
		<polygon id="polygon3184" class="st0" points="113,32.4 112,32.4 112,27.9 110.1,30.7 109.8,30.7 107.7,27.9 107.7,32.4 
			106.6,32.4 106.6,26 107.5,26 109.9,29.2 112,26 113,26 		"/>
		<polygon id="polygon3186" class="st0" points="157.5,32.4 156.5,32.4 156.5,27.9 154.6,30.7 154.3,30.7 152.2,27.9 152.2,32.4 
			151.1,32.4 151.1,26 152,26 154.3,29.2 156.5,26 157.5,26 		"/>
		<path id="path3188" class="st0" d="M132.2,26h-0.9l-2.6,6.4h1.1l0.7-1.8h2.3l0.7,1.8h1.2L132.2,26z M130.8,29.8l0.9-2.2l0.9,2.2
			H130.8z"/>
		<path id="path3190" class="st0" d="M147.5,26h-0.9l-2.6,6.4h1.1l0.7-1.8h2.3l0.7,1.8h1.2L147.5,26z M146.1,29.8l0.9-2.2l0.9,2.2
			H146.1z"/>
		<polygon id="polygon3192" class="st0" points="121,32.4 121,26 122.1,26 122.1,31.4 124.4,31.4 124.4,32.4 		"/>
		<polygon id="polygon3194" class="st0" points="126.1,32.4 126.1,26.7 124.1,26.7 124.1,26 129.2,26 128.9,26.7 127.2,26.7 
			127.1,32.4 		"/>
		<path id="path3196" class="st0" d="M142.2,29.5h1V32c-0.7,0.3-1.5,0.5-2.3,0.6c-1.5,0-2.8-0.9-3.2-2.4c-0.3-1-0.1-2,0.4-2.9
			c0.6-0.7,1.5-1.2,2.4-1.2c0.2,0,2.4,0,2.4,0.2s0,0.9,0,0.9c-0.4-0.2-0.8-0.3-1.2-0.3c-0.5-0.1-1-0.1-1.5,0
			c-0.7,0.2-1.2,0.7-1.4,1.4c-0.4,1.4,0.3,3.2,2,3.3c0.2,0,1.4,0,1.4-0.3S142.2,29.5,142.2,29.5z"/>
		<path id="path3198" class="st0" d="M173.8,29.5h1V32c-0.7,0.3-1.5,0.5-2.3,0.6c-1.5,0-2.8-0.9-3.2-2.4c-0.3-1-0.1-2,0.4-2.9
			c0.6-0.7,1.5-1.2,2.4-1.2c0.2,0,2.4,0,2.4,0.2s0,0.9,0,0.9c-0.4-0.2-0.8-0.3-1.2-0.3c-0.5-0.1-1-0.1-1.5,0
			c-0.7,0.2-1.2,0.7-1.4,1.4c-0.4,1.4,0.3,3.2,2,3.3c0.2,0,1.4,0,1.4-0.3C173.8,31.1,173.8,29.5,173.8,29.5z"/>
		<rect id="rect3200" x="159.2" y="26" class="st0" width="1.1" height="6.4"/>
		<polygon id="polygon3202" class="st0" points="167.7,26 166.7,26 166.7,30.5 163.1,26 162.1,26 162.1,32.4 163.1,32.4 163.1,27.6 
			166.7,32.4 167.7,32.4 		"/>
		<path id="path3204" class="st0" d="M113.3,34.4v4.7c0,0.5,0.2,0.9,0.5,1.2c0.5,0.4,1.1,0.6,1.8,0.7h0.7c0.6,0,1.3-0.2,1.8-0.7
			c0.3-0.3,0.5-0.8,0.5-1.2v-4.7h-1.1v4.7c0,0-0.1,0.9-1.5,0.9c-0.2,0-1.6-0.1-1.6-1v-4.6H113.3z"/>
		<polygon id="polygon3206" class="st0" points="130.8,41 130.8,34.4 129.9,34.4 129.9,37.3 126.6,37.3 126.6,34.4 125.5,34.4 
			125.5,41 126.6,41 126.6,38 129.9,38 129.9,41 		"/>
		<path id="path3208" class="st0" d="M135.6,40.9c-1.8,0.1-3.4-1.4-3.5-3.2c-0.1-1.8,1.4-3.4,3.2-3.5c1.8-0.1,3.4,1.4,3.5,3.2
			c0,0,0,0.1,0,0.1C138.8,39.4,137.4,40.9,135.6,40.9z M135.6,35.3c-1.3-0.1-2.4,0.9-2.5,2.2c-0.1,1.3,0.9,2.4,2.2,2.5
			s2.4-0.9,2.5-2.2c0,0,0-0.1,0-0.1C137.8,36.4,136.9,35.3,135.6,35.3z"/>
		<polygon id="polygon3210" class="st0" points="157,40.8 155.9,40.8 155.9,38.2 153.7,34.4 154.9,34.4 156.4,37.2 158,34.4 
			159.2,34.4 157,38.2 		"/>
		<polygon id="polygon3212" class="st0" points="150,40.9 150,35.2 148,35.2 148,34.5 153.1,34.5 152.9,35.2 151.1,35.2 151.1,40.9 
					"/>
		<polygon id="polygon3214" class="st0" points="121.5,40.9 121.5,35.2 119.5,35.2 119.5,34.5 124.6,34.5 124.3,35.2 122.6,35.2 
			122.5,40.9 		"/>
		<rect id="rect3216" x="146" y="34.5" class="st0" width="1" height="6.4"/>
		<path id="path3218" class="st0" d="M110.1,34.5h-0.9l-2.6,6.4h1.1l0.7-1.8h2.3l0.7,1.8h1.2L110.1,34.5z M108.7,38.3l0.9-2.2
			l0.9,2.2H108.7z"/>
		<path id="path3220" class="st0" d="M143.1,37.9c0.3-0.1,0.5-0.2,0.7-0.3c0.3-0.2,0.4-0.5,0.5-0.8c0.1-1.2-0.7-2.3-1.9-2.4
			c-0.1,0-0.2,0-0.3,0c-0.6,0-1.2,0.1-1.8,0.1c0,2.2,0,6.6,0,6.6h1.1v-2.7h0.8l1.5,2.8h1.2L143.1,37.9z M142.7,36.6
			c-0.1,0.1-0.1,0.2-0.2,0.3c-0.1,0.1-0.2,0.1-0.3,0.1c-0.1,0-0.3,0-0.4,0h-0.3v-1.6h0.3c0.1,0,0.3,0,0.4,0c0.1,0,0.2,0.1,0.3,0.1
			c0.1,0.1,0.2,0.2,0.2,0.3c0.1,0.1,0.1,0.3,0.1,0.4C142.8,36.3,142.7,36.5,142.7,36.6z"/>
	</g>
</g>
</svg>
