<?xml version="1.0" encoding="utf-8"?>
<!-- Generator: Adobe Illustrator 27.2.0, SVG Export Plug-In . SVG Version: 6.00 Build 0)  -->
<svg version="1.1" id="Layer_1" xmlns="http://www.w3.org/2000/svg" xmlns:xlink="http://www.w3.org/1999/xlink" x="0px" y="0px"
	 viewBox="0 0 38.7 6.8" style="enable-background:new 0 0 38.7 6.8;" xml:space="preserve">
<style type="text/css">
	.st0{fill:#FFFFFF;}
</style>
<g transform="translate(17.078666,-145.45724)">
	<path class="st0" d="M19.1,148.4c-0.3,0.2-0.6,0.3-1,0.2h-0.4l0.3-1.8h0.3c0.3,0,0.6,0,0.8,0.2c0.2,0.1,0.3,0.4,0.3,0.6
		C19.5,147.9,19.3,148.2,19.1,148.4 M-6.8,150.7h-3.4l0.2-1.2h2.1l0.2-1.3h-2.1l0.2-1.2h3.3L-6.8,150.7z M20.9,146
		c-0.5-0.3-1.2-0.5-2.2-0.5h-2.6l-0.9,5.2h-3.4l0.2-1.2h2l0.2-1.3h-2l0.2-1.2h2.1l0.3-1.5h-4.2l-0.9,4.9H8.1l0.9-4.9H6.8l-0.9,4.9
		H4.4l0.9-4.9H3.1l-1,5.2h-3.4l0.2-1.2h2l0.2-1.3h-2l0.2-1.2h2.1l0.3-1.5h-13.2l-0.7,4.1l-1.5-4.1h-2.3l-1.2,6.7h2.2l0.7-4.2
		l1.4,4.2h7.8l1-5.2h1.2l-1,5.2H17l0.6-3.3l1,3.3h2.2l-1-2.7l0.2-0.1c0.5-0.1,0.9-0.3,1.2-0.7c0.3-0.4,0.4-0.9,0.4-1.4
		C21.6,146.9,21.4,146.3,20.9,146"/>
</g>
</svg>
