<?xml version="1.0" encoding="utf-8"?>
<!-- Generator: Adobe Illustrator 27.2.0, SVG Export Plug-In . SVG Version: 6.00 Build 0)  -->
<svg version="1.1" id="Layer_1" xmlns="http://www.w3.org/2000/svg" xmlns:xlink="http://www.w3.org/1999/xlink" x="0px" y="0px"
	 viewBox="0 0 38.6 6.6" style="enable-background:new 0 0 38.6 6.6;" xml:space="preserve">
<style type="text/css">
	.st0{fill:#FFFFFF;}
</style>
<g transform="translate(-346.11013,-342.44297)">
	<g transform="matrix(0.26458333,0,0,0.26458333,338.38547,336.73872)">
		<path class="st0" d="M48.2,32.1c0-0.9,0.2-1.8,0.8-2.6c0.3-0.3,0.6-0.5,1-0.6c0.4-0.2,0.8-0.3,1.2-0.3h4.6c2,0,3,1.1,3,3.3v6.7
			c0,0.8-0.3,1.5-0.9,2c-0.5,0.6-1.3,0.9-2.1,0.9h-4.3v4.8h-3.2L48.2,32.1z M55.5,32.7c0.1-0.4-0.2-0.7-0.6-0.8c0,0-0.1,0-0.1,0
			h-2.5c-0.5,0-0.9,0.4-0.9,0.8c0,0,0,0,0,0c0,0,0,0.1,0,0.1v4.5c-0.1,0.5,0.3,0.9,0.8,1c0,0,0,0,0,0h2.5c0.2,0,0.4-0.1,0.6-0.3
			c0.2-0.1,0.3-0.3,0.2-0.5L55.5,32.7z"/>
		<path class="st0" d="M68.6,32.6c0-0.5-0.3-0.7-0.8-0.7h-6.4v-3.3h7.2c2.1,0,3.2,1,3.2,3.1v6.8c0,0.8-0.3,1.5-0.8,2.1
			c-0.5,0.6-1.3,0.9-2.1,0.9h-4.4c-2.1,0-3.2-1-3.2-2.9V36c0-2,1-3,3.1-3.1h4.2L68.6,32.6z M64.4,37.6c0,0.2,0.1,0.4,0.3,0.4
			c0.2,0.1,0.4,0.2,0.6,0.2h2.4c0.6,0,0.8-0.2,0.9-0.7v-0.9c0-0.5-0.3-0.7-0.9-0.7h-2.4c-0.2,0-0.5,0-0.7,0.2
			c-0.1,0.2-0.2,0.5-0.2,0.7L64.4,37.6z"/>
		<path class="st0" d="M80.7,43.1c0.2,0,0.5-0.1,0.7-0.3c0.2-0.1,0.3-0.3,0.2-0.5v-0.8h-4.1c-0.4,0-0.9,0-1.3-0.2
			c-0.4-0.1-0.7-0.4-1-0.7c-0.3-0.3-0.5-0.7-0.7-1.1c-0.2-0.4-0.2-0.9-0.2-1.3v-9.6h3.2v8.7c0,0.7,0.3,1,0.8,1h2.3
			c0.3,0,0.5-0.1,0.7-0.3c0.2-0.1,0.3-0.3,0.3-0.5v-8.8h3.1v14.2c0,0.9-0.3,1.8-0.8,2.5c-0.5,0.6-1.3,1-2.2,1h-7.4v-3.3L80.7,43.1z"
			/>
		<path class="st0" d="M87.2,38.3h5.7c0.5,0,0.8-0.2,0.8-0.6v-0.3c0-0.1,0-0.2-0.1-0.3c-0.1-0.2-0.3-0.4-0.5-0.4h-2.9
			c-0.8,0-1.6-0.3-2.2-0.9c-0.6-0.5-0.9-1.1-0.9-1.9v-2.4c0-1.9,1.1-2.9,3.1-2.9h6.6V32h-5.6c-0.7,0-1,0.2-1,0.6v0.3
			c0,0.4,0.3,0.6,1,0.6h2.8c0.7,0,1.4,0.3,1.9,0.9c0.5,0.5,0.8,1.3,0.8,2v2.4c-0.1,0.8-0.4,1.5-0.9,2c-0.2,0.3-0.5,0.5-0.9,0.7
			c-0.4,0.1-0.8,0.2-1.3,0.2h-6.6L87.2,38.3z"/>
		<path class="st0" d="M106.5,32.6c0-0.5-0.3-0.7-0.9-0.7h-6.4v-3.3h7.2c2.1,0,3.2,1,3.2,3.1v6.8c0,0.8-0.3,1.5-0.8,2.1
			c-0.5,0.6-1.3,0.9-2.1,0.9h-4.4c-2.1,0-3.2-1-3.2-2.9V36c0-2,1-3,3.1-3.1h4.2L106.5,32.6z M102.3,37.6c0,0.2,0.1,0.4,0.3,0.4
			c0.2,0.1,0.4,0.2,0.6,0.2h2.4c0.6,0,0.8-0.2,0.9-0.7v-0.9c0-0.5-0.3-0.7-0.9-0.7h-2.4c-0.2,0-0.5,0-0.7,0.2
			c-0.1,0.2-0.2,0.5-0.2,0.7L102.3,37.6z"/>
		<path class="st0" d="M112.2,26.8c0-0.8,0.4-1.6,1-2.1c0.7-0.5,1.5-0.8,2.4-0.8h2V27h-1.2c-0.5-0.1-0.9,0.3-1,0.8
			c0,0.1,0,0.1,0,0.2v0.7h2.2v3.3h-2.2v9.6h-3.2L112.2,26.8z"/>
		<path class="st0" d="M122.8,37.2v0.2c0,0.2,0.1,0.5,0.2,0.6c0.1,0.2,0.2,0.3,0.4,0.3h6.5v3.3h-7c-0.5,0-1,0-1.5-0.2
			c-0.4-0.1-0.7-0.3-1-0.6c-0.3-0.3-0.6-0.7-0.7-1.1c-0.1-0.5-0.2-1-0.2-1.5v-6.5c0-2,1.1-3,3.1-3h4.3c2,0,3,1,3,3.1v2.6L122.8,37.2
			z M126.7,32.6L126.7,32.6c0-0.3-0.1-0.4-0.2-0.5c-0.2-0.1-0.3-0.2-0.5-0.1h-2.2c-0.3,0-0.5,0.1-0.7,0.2c-0.2,0.1-0.3,0.4-0.3,0.6
			v1.3L126.7,32.6z"/>
		<path class="st0" d="M136.7,41.6c-0.4,0-0.9,0-1.3-0.1c-0.5-0.1-0.9-0.3-1.3-0.6c-0.4-0.3-0.7-0.8-0.9-1.3
			c-0.2-0.5-0.3-1.1-0.3-1.6v-6.1c0-0.4,0-0.9,0.1-1.3c0.1-0.4,0.4-0.8,0.7-1.1c0.3-0.3,0.7-0.6,1.2-0.8c0.4-0.1,0.9-0.2,1.4-0.1
			h4.9v0.8h-4.8c-0.7,0-1.4,0.1-2,0.5c-0.5,0.5-0.8,1.2-0.8,1.9v6.1c0,0.4,0.1,0.8,0.2,1.2c0.2,0.8,0.9,1.4,1.7,1.5
			c0.4,0.1,0.7,0.1,1.1,0.1h4.5v0.8L136.7,41.6z"/>
		<path class="st0" d="M154.5,38.1c0,0.4,0,0.9-0.1,1.3c-0.1,0.4-0.3,0.8-0.6,1.2c-0.6,0.7-1.5,1-2.5,1h-3.8c-0.9,0-1.8-0.3-2.4-0.9
			c-0.7-0.6-1-1.5-1-2.4v-2c0-2.2,1.1-3.4,3.3-3.4h6.3V32c0-0.7-0.2-1.3-0.6-1.9c-0.2-0.3-0.5-0.6-0.9-0.7c-0.4-0.1-0.8-0.1-1.2-0.1
			h-6.9v-0.8h6.6c0.5,0,1.1,0,1.6,0.1c0.3,0.1,0.5,0.2,0.8,0.4c0.2,0.2,0.5,0.4,0.6,0.6c0.6,0.7,0.9,1.7,0.9,2.6L154.5,38.1z
			 M153.7,33.7h-6.4c-0.7,0-1.3,0.2-1.8,0.7c-0.5,0.5-0.7,1.2-0.7,1.9v1.9c0,0.3,0,0.7,0.1,1c0.1,0.4,0.3,0.7,0.6,0.9
			c0.5,0.4,1.2,0.7,1.8,0.7h3.9c1.6,0,2.4-0.9,2.4-2.6L153.7,33.7z"/>
		<path class="st0" d="M161.6,29.3c-1.8,0-2.6,1-2.6,2.9v9.3h-0.8v-9.3c0-2.5,1.1-3.7,3.5-3.7h0.9v0.8L161.6,29.3z"/>
		<path class="st0" d="M175.3,38c-0.1,2.5-1.4,3.7-3.9,3.6h-2.8c-0.5,0-1.1-0.1-1.6-0.2c-0.5-0.2-1-0.5-1.4-0.9
			c-0.3-0.4-0.5-0.8-0.6-1.3c-0.1-0.5-0.2-0.9-0.1-1.4v-5.6c0-2.5,1.3-3.7,3.8-3.7h6v-4.2h0.8L175.3,38z M174.5,29.4h-6
			c-0.4,0-0.8,0-1.2,0.1c-0.4,0.1-0.7,0.3-1,0.7c-0.3,0.3-0.5,0.6-0.6,1c-0.1,0.4-0.2,0.8-0.1,1.2v5.9c-0.1,0.8,0.2,1.5,0.9,2
			c0.3,0.2,0.6,0.3,0.9,0.4c0.4,0.1,0.8,0.1,1.2,0.1h2.6c0.9,0,1.7-0.2,2.4-0.7c0.7-0.5,1.1-1.4,1-2.2L174.5,29.4z"/>
		<path class="st0" d="M30.6,28.2c0.2-0.1,0.5-0.2,0.7-0.3c0.5-2.6,3-4.3,5.7-3.8c1.9,0.4,3.4,1.9,3.8,3.8c0.7,0.1,1.3,0.4,1.8,0.9
			c0-0.4,0-0.8,0-1.2c-0.3-3.6-3.4-6.2-6.9-6c-3.3,0.2-5.9,3-6,6.3c0,0.3,0,0.6,0,0.9C29.9,28.5,30.2,28.3,30.6,28.2"/>
		<path class="st0" d="M39.8,28.7h-7.8c-0.4,0-0.8,0.1-1.2,0.3c-0.3,0.2-0.7,0.4-1,0.6c-0.5,0.7-0.8,1.6-0.8,2.6v6.1
			c0,0.9,0.3,1.8,0.8,2.5c0.3,0.3,0.6,0.5,1,0.6c0.4,0.2,0.8,0.3,1.2,0.3h7.8c2,0,3-1.1,3.1-3.3v-6.3C42.9,29.8,41.9,28.7,39.8,28.7
			"/>
	</g>
</g>
</svg>
