<?xml version="1.0" encoding="utf-8"?>
<!-- Generator: Adobe Illustrator 27.2.0, SVG Export Plug-In . SVG Version: 6.00 Build 0)  -->
<svg version="1.1" id="Layer_1" xmlns="http://www.w3.org/2000/svg" xmlns:xlink="http://www.w3.org/1999/xlink" x="0px" y="0px"
	 viewBox="0 0 28.3 9.7" style="enable-background:new 0 0 28.3 9.7;" xml:space="preserve">
<style type="text/css">
	.st0{fill:#FFFFFF;}
</style>
<g transform="translate(11.887317,-144.00248)">
	<path class="st0" d="M10.6,144.9l2.4-0.4v9h-2.4V144.9z M14.1,144.9v8.6h2.4v-9L14.1,144.9z M7.3,153.6h2.3V147H7.3L7.3,153.6z
		 M-8.3,147.9c-0.3,0-1-0.1-1-0.7c0-0.8,1-0.8,1.4-0.8c0.7,0,1.4,0.2,2.1,0.4c0,0,0.3,0.1,0.6,0.2h0v-2h0c-1-0.4-2-0.5-3.1-0.5
		c-2.6,0-3.6,1.5-3.6,2.9c0,0.8,0.3,2.6,3.4,2.8c0.3,0,0.9,0.1,0.9,0.7c0,0.5-0.6,0.8-1.5,0.8c-0.9,0-1.8-0.2-2.6-0.5v2.1
		c1,0.3,2.1,0.4,3.1,0.4c2.6,0,3.8-1.5,3.8-2.9C-4.8,149.1-6.1,148-8.3,147.9L-8.3,147.9z M5.9,146.9c-2.2,0.1-3.3,1.1-3.3,3v3.7H5
		v-3c0-1.2,0.2-1.7,1.5-1.7v-1.9C6.4,146.9,6.1,146.9,5.9,146.9z M-0.5,146.9c-0.3,0.8-0.8,1.6-1.3,2.3v-4.7l-2.4,0.5v8.6h2.4v-2.6
		c0.7,1.1,1.1,2.6,1.1,2.6h2.9c-0.3-1.2-1.5-3.4-1.5-3.4c0.7-1,1.3-2.1,1.7-3.2L-0.5,146.9z M8.4,146.3c0.6,0,1.2-0.5,1.2-1.2
		c0-0.6-0.5-1.2-1.2-1.2c-0.6,0-1.2,0.5-1.2,1.2l0,0l0,0C7.3,145.8,7.8,146.3,8.4,146.3L8.4,146.3z"/>
</g>
</svg>
