<?xml version="1.0" encoding="utf-8"?>
<!-- Generator: Adobe Illustrator 27.2.0, SVG Export Plug-In . SVG Version: 6.00 Build 0)  -->
<svg version="1.1" id="Layer_1" xmlns="http://www.w3.org/2000/svg" xmlns:xlink="http://www.w3.org/1999/xlink" x="0px" y="0px"
	 viewBox="0 0 1920 1080" style="enable-background:new 0 0 1920 1080;" xml:space="preserve">
<style type="text/css">
	.st0{fill-rule:evenodd;clip-rule:evenodd;fill:#FFFFFF;}
	.st1{fill:#FFFFFF;}
</style>
<path class="st0" d="M21,37.5c9.1,0,16.5-7.4,16.5-16.5S30.1,4.5,21,4.5S4.5,11.9,4.5,21S11.9,37.5,21,37.5z M21,39.8
	c10.4,0,18.8-8.4,18.8-18.8S31.4,2.2,21,2.2S2.2,10.6,2.2,21S10.6,39.8,21,39.8z"/>
<path class="st1" d="M16.3,26.1h-7v-1.4l3.3-3.5c0.4-0.5,0.8-0.9,1-1.3s0.3-0.7,0.3-1c0-0.5-0.1-0.8-0.3-1.1c-0.2-0.3-0.6-0.4-1-0.4
	c-0.5,0-0.8,0.2-1.1,0.5s-0.4,0.7-0.4,1.2h-2c0-0.6,0.1-1.2,0.4-1.7c0.3-0.5,0.7-0.9,1.3-1.2c0.5-0.3,1.1-0.4,1.8-0.4
	c1,0,1.9,0.3,2.4,0.8c0.6,0.5,0.9,1.2,0.9,2.1c0,0.5-0.1,1-0.4,1.5c-0.3,0.5-0.7,1.1-1.3,1.8l-2.3,2.4h4.4V26.1z M24.5,21.9
	c0,1.4-0.3,2.5-0.9,3.2s-1.4,1.1-2.5,1.1s-1.9-0.4-2.5-1.1s-0.9-1.8-0.9-3.1v-1.9c0-1.4,0.3-2.5,0.9-3.2s1.4-1.1,2.5-1.1
	s1.9,0.4,2.5,1.1s0.9,1.8,0.9,3.1V21.9z M22.4,19.8c0-0.8-0.1-1.5-0.3-1.8c-0.2-0.4-0.6-0.6-1.1-0.6s-0.8,0.2-1,0.5
	c-0.2,0.4-0.3,0.9-0.4,1.7v2.5c0,0.8,0.1,1.4,0.3,1.8c0.2,0.4,0.6,0.6,1.1,0.6s0.8-0.2,1.1-0.6c0.2-0.4,0.3-1,0.3-1.8V19.8
	L22.4,19.8z M30.4,20.4h2.5v1.8h-2.5V25h-1.9v-2.8H26v-1.8h2.5v-2.7h1.9C30.4,17.7,30.4,20.4,30.4,20.4z"/>
</svg>
