<?xml version="1.0" encoding="utf-8"?>
<!-- Generator: Adobe Illustrator 27.2.0, SVG Export Plug-In . SVG Version: 6.00 Build 0)  -->
<svg version="1.1" id="Layer_1" xmlns="http://www.w3.org/2000/svg" xmlns:xlink="http://www.w3.org/1999/xlink" x="0px" y="0px"
	 viewBox="0 0 28.3 9.1" style="enable-background:new 0 0 28.3 9.1;" xml:space="preserve">
<style type="text/css">
	.st0{fill:#FFFFFF;}
</style>
<g transform="translate(11.883386,-144.26391)">
	<path class="st0" d="M-1.1,144.4l-3.7,8.8h-2.4l-1.8-7.1c-0.1-0.4-0.2-0.6-0.5-0.8c-0.7-0.3-1.5-0.6-2.3-0.8l0.1-0.3h3.9
		c0.5,0,1,0.4,1.1,0.9l1,5.1l2.4-6L-1.1,144.4z M8.3,150.4c0-2.3-3.2-2.5-3.2-3.5c0-0.3,0.3-0.7,1-0.7c0.8-0.1,1.6,0.1,2.3,0.4
		l0.4-1.9c-0.7-0.3-1.4-0.4-2.1-0.4c-2.3,0-3.9,1.2-3.9,2.9c0,1.3,1.1,2,2,2.4c0.9,0.4,1.2,0.7,1.2,1.1c0,0.6-0.7,0.9-1.4,0.9
		c-0.8,0-1.6-0.2-2.4-0.6l-0.4,1.9c0.8,0.3,1.7,0.5,2.5,0.5C6.7,153.4,8.3,152.2,8.3,150.4 M14.3,153.3h2.1l-1.9-8.8h-2
		c-0.4,0-0.8,0.3-1,0.6l-3.4,8.2h2.4l0.5-1.3H14L14.3,153.3z M11.8,150.1l1.2-3.3l0.7,3.3H11.8z M2.1,144.4l-1.9,8.8h-2.3l1.9-8.8
		H2.1z"/>
</g>
</svg>
